<svg width="272" height="62" viewBox="0 0 272 62" fill="none" xmlns="http://www.w3.org/2000/svg">
<path d="M83.8784 46.3434L76.2703 20.6666H81.8518L88.4632 43.4089H85.6724L92.5828 20.6666H97.5663L104.211 43.4089H101.52L108.297 20.6666H113.447L105.839 46.3434H100.058L94.1776 26.3889H95.7058L89.6592 46.3434H83.8784Z" fill="#3B0C77"/>
<path d="M116.452 46.3434V20.6666H121.834V46.3434H116.452Z" fill="#3B0C77"/>
<path d="M127.353 46.3434V20.6666H131.805L145.526 39.1539H143.367V20.6666H148.682V46.3434H144.264L130.509 27.8561H132.669V46.3434H127.353Z" fill="#3B0C77"/>
<path d="M159.135 31.0107H170.331V35.6325H159.135V31.0107ZM159.534 41.5749H172.192V46.3434H154.185V20.6666H171.76V25.4352H159.534V41.5749Z" fill="#3B0C77"/>
<path d="M185.272 30.3572V20.6666H189.762C190.836 20.6666 191.782 20.8697 192.601 21.2757C193.42 21.6726 194.06 22.231 194.521 22.9508C194.983 23.6707 195.213 24.5244 195.213 25.5119C195.213 26.4902 194.983 27.3439 194.521 28.073C194.06 28.7929 193.42 29.3559 192.601 29.7619C191.782 30.1588 190.836 30.3572 189.762 30.3572H185.272ZM187.559 28.516H189.649C190.308 28.516 190.878 28.396 191.358 28.1561C191.848 27.9069 192.224 27.5562 192.488 27.1039C192.761 26.6517 192.897 26.121 192.897 25.5119C192.897 24.8936 192.761 24.3629 192.488 23.9199C192.224 23.4677 191.848 23.1216 191.358 22.8816C190.878 22.6324 190.308 22.5078 189.649 22.5078H187.559V28.516Z" fill="#3B0C77"/>
<path d="M195.501 30.3572L199.907 20.6666H202.167L206.587 30.3572H204.186L200.571 21.8018H201.475L197.846 30.3572H195.501ZM197.704 28.2807L198.312 26.5779H203.395L204.017 28.2807H197.704Z" fill="#3B0C77"/>
<path d="M209.164 30.3572V22.494H206V20.6666H214.614V22.494H211.451V30.3572H209.164Z" fill="#3B0C77"/>
<path d="M214.05 30.3572L218.456 20.6666H220.715L225.135 30.3572H222.734L219.119 21.8018H220.023L216.394 30.3572H214.05ZM216.253 28.2807L216.86 26.5779H221.944L222.565 28.2807H216.253Z" fill="#3B0C77"/>
<path d="M186.058 46.9697V37.2791H188.345V45.1423H193.302V46.9697H186.058Z" fill="#3B0C77"/>
<path d="M193.336 46.9697L197.742 37.2791H200.002L204.422 46.9697H202.021L198.406 38.4142H199.31L195.681 46.9697H193.336ZM195.539 44.8931L196.147 43.1903H201.23L201.852 44.8931H195.539Z" fill="#3B0C77"/>
<path d="M207.495 44.7547L207.368 42.1659L212.099 37.2791H214.64L210.376 41.7783L209.105 43.1073L207.495 44.7547ZM205.447 46.9697V37.2791H207.721V46.9697H205.447ZM212.212 46.9697L208.695 42.7473L210.192 41.1553L214.88 46.9697H212.212Z" fill="#3B0C77"/>
<path d="M218.005 41.183H222.764V42.9273H218.005V41.183ZM218.174 45.17H223.554V46.9697H215.901V37.2791H223.371V39.0787H218.174V45.17Z" fill="#3B0C77"/>
<g clip-path="url(#clip0_7_54)">
<path fill-rule="evenodd" clip-rule="evenodd" d="M36.6929 42.1221L36.3722 42.7644C36.0018 43.5525 35.8584 43.8136 35.389 44.4886C33.1189 43.0248 32.7833 42.0309 31.4569 41.1757C30.3402 41.8957 29.3234 43.4928 26.7775 44.9522C24.5584 46.2243 23.4501 46.8548 19.9064 46.8548L23.672 37.9389C25.3637 34.3132 25.8261 33.074 30.0486 31.7994L30.8666 31.466C31.7004 31.1172 30.9928 31.6581 31.6749 30.9758C33.0136 29.6367 34.6141 25.956 35.5993 23.8667L37.2412 20.2782C37.6959 19.0314 38.1991 18.9344 38.8296 16.3283C40.0409 16.5999 41.1169 17.4189 42.2704 17.5114C42.2451 18.597 42.2239 18.3972 41.7189 19.1102C40.7043 20.5426 39.7262 23.4019 38.8965 25.1235L38.5013 26.1851C38.2493 26.7565 38.0049 27.037 37.7759 27.619L36.1473 32.4549C36.1041 33.2048 36.2788 33.5517 36.5342 34.1557C36.6671 34.4693 36.7188 34.5926 36.8297 34.8192C38.7672 38.7817 37.6041 39.5992 36.693 42.1222L36.6929 42.1221ZM16.4658 46.3816C12.2488 46.3816 9.45327 42.3585 7.61857 41.1757C6.20557 42.0866 3.96327 44.8056 2.21179 45.1985C2.48928 46.3459 3.39495 48.0076 3.93214 48.9846C7.82428 47.0015 6.75789 46.5178 10.4216 48.6519C11.2624 49.1416 12.2253 49.575 13.0546 49.9027C18.4218 52.0226 23.7157 51.6658 28.4624 48.7044C32.9185 45.9243 31.3595 47.7429 37.1062 49.9342C42.7213 52.0751 47.2613 51.6517 52.3018 48.7053C55.5759 46.791 55.1244 46.8179 58.4755 48.7623C59.3796 49.2869 60.4878 49.8994 61.685 50.1679C62.035 48.722 63.0556 47.8273 63.4053 46.3816C62.6373 46.3201 61.5438 45.7935 60.8977 45.4721C59.3742 44.7147 60.0435 44.4455 58.2805 43.5077C55.9398 42.2625 56.7823 42.1343 55.2954 41.1756C53.8609 42.1004 50.1634 46.8547 44.9735 46.8547C42.7493 46.8547 40.5764 47.0655 38.584 46.1451L40.1976 42.4926C43.0315 35.6608 39.5773 34.717 39.6424 32.4545C39.6607 31.8081 43.452 22.7039 44.3469 21.1675C44.5837 20.7605 44.7977 20.1823 44.9367 19.8424C45.7195 17.9262 46.3531 17.883 45.667 16.1338C45.2725 15.1277 44.8964 15.1206 43.0781 14.367C38.139 12.3197 36.4775 11.0679 34.5809 17.9167L30.7288 26.2759C30.2882 27.0297 30.2801 27.6374 29.4035 28.3126C28.6868 28.8646 27.5955 29.0234 26.7807 29.3367C25.5087 29.8261 24.6023 30.372 23.6873 31.3276C22.7855 32.2696 21.1791 35.545 20.6785 36.713C19.8591 38.6256 16.7993 45.0031 16.4659 46.3816H16.4658Z" fill="#8162B5"/>
<path fill-rule="evenodd" clip-rule="evenodd" d="M0.000127057 34.5495C0.708342 34.1887 1.96265 33.682 2.94924 33.6028C2.94924 31.7752 3.41923 28.8044 3.88044 26.927C4.38753 24.8638 4.98139 23.0008 5.81361 21.2157C7.68732 17.196 8.49426 16.149 11.0938 13.0483C12.6406 11.2031 14.2418 9.83452 16.3656 8.4223C19.7829 6.14976 23.0875 4.74745 27.2287 3.73762C35.7543 1.65813 44.7383 4.09315 51.5766 9.0235C52.3417 9.57527 52.9812 10.0999 53.7484 10.7183C54.5556 11.369 55.1828 12.0222 55.7875 12.778C56.3737 13.5108 56.9311 14.0642 57.5458 14.8712C61.8388 20.5065 64.5125 28.1359 63.8968 35.2595L67.0798 36.2408C67.1173 27.4039 66.4157 20.8905 60.7404 13.4514C55.1877 6.17263 45.8051 0 35.8805 0H35.5237H35.1739C28.0088 0.00330329 24.972 0.111578 18.1007 3.46724C9.27922 7.77547 2.15209 17.1873 0.486501 26.7354C0.0368465 29.3132 0.0017788 31.2439 0 34.2547V34.4014V34.5495H0.000127057ZM0.000127057 37.0024V36.8585C0.00127057 36.8052 0.00393876 36.7529 0.00800458 36.7025C0.140017 35.0834 0.958263 35.4183 3.1904 33.5984L3.95985 32.9198C4.01208 32.8728 4.16213 32.7383 4.21524 32.6922C4.78153 32.2003 5.80383 31.3775 6.38956 30.9998C8.2681 33.7012 11.8619 35.6356 15.1041 36.4185C15.1407 36.4274 15.2124 36.4489 15.2494 36.4576C16.3555 36.7209 18.0327 36.6793 19.9064 36.6793L17.6946 41.1756C12.6953 40.0539 14.0085 40.9005 8.8255 38.3568L7.64234 37.6027C6.08539 36.5851 5.18697 37.3221 4.25907 37.9407C2.84315 38.8845 1.66406 39.9659 0.491456 40.2289C0.416874 39.365 0.0189315 37.9747 0 37.0023L0.000127057 37.0024Z" fill="#3B0C77"/>
<path fill-rule="evenodd" clip-rule="evenodd" d="M7.8642 31.9467C9.48671 32.3105 10.0356 33.75 11.305 34.0764L11.0592 30.5269C11.0592 25.7477 14.2643 19.7808 18.1205 16.5019C21.2843 13.8118 27.99 10.6303 33.5658 10.817C36.5384 10.9162 40.1933 11.8836 42.2702 12.7788C50.1434 16.1723 55.5414 22.9689 55.5414 31.4733L58.736 33.3666C58.736 28.3305 58.6518 26.5785 57.1587 22.8167C56.0526 20.0288 54.36 17.4244 52.1656 15.3192C49.9837 13.2256 47.817 11.6485 44.8954 10.2514C38.1373 7.01928 28.8456 6.94465 22.0331 10.0937C19.2503 11.38 16.8536 12.9952 14.8061 14.9668C13.0044 16.7016 10.7528 19.6428 9.79114 21.9699C8.38945 25.361 7.86445 27.1196 7.86445 31.9468L7.8642 31.9467Z" fill="#3B0C77"/>
<path fill-rule="evenodd" clip-rule="evenodd" d="M6.19299 52.345C6.31573 52.9175 6.77009 53.3773 7.20259 53.8814C8.52792 55.4263 9.72238 56.8044 11.3772 58.144C12.4288 58.9957 13.431 59.7399 14.5965 60.4868C16.0235 61.4013 17.3021 61.8757 18.6173 62H20.0877C21.5619 61.8703 23.1575 61.372 25.1058 60.6173C28.4192 59.3338 29.0352 57.9772 30.9654 57.9772C32.1201 57.9772 33.6867 59.5582 36.1939 60.5149C41.949 62.7102 46.3317 62.3745 51.6003 59.3885C52.3707 58.952 52.4665 58.6792 53.5227 58.4C54.883 58.0405 54.4937 58.4311 55.4907 57.455C56.3004 56.6621 57.9486 55.4937 58.2444 54.4275C57.2395 54.0278 57.5637 54.6287 56.335 53.4294C55.7158 52.8254 55.2564 52.2748 54.558 51.8242C53.1 53.0445 51.9218 54.3613 50.2412 55.4767C45.9206 58.3443 39.7464 58.1833 35.2442 55.5133C32.4959 53.8838 32.0998 52.714 30.7195 51.8241C29.2851 52.7493 25.5876 57.5036 20.3977 57.5036C16.5316 57.5036 14.8081 57.7207 11.2547 55.4221C8.50784 53.6453 7.82148 52.1293 6.6354 51.8241L6.19299 52.3448V52.345Z" fill="#3B0C77"/>
<path fill-rule="evenodd" clip-rule="evenodd" d="M42.2703 36.6793C42.9353 38.0142 41.8927 39.8578 41.7786 41.1756C42.6029 41.1756 43.1814 41.0744 43.7093 41.0339L48.5808 39.6831C49.7552 39.1233 49.9044 39.3332 51.9554 37.9594C53.1899 37.1324 54.1054 36.52 55.9817 37.9116C56.0387 37.9538 56.1953 38.0818 56.2514 38.1252C56.2909 38.1559 56.344 38.2038 56.3838 38.2342L59.3996 39.7572C59.4315 39.7709 59.4982 39.7966 59.5296 39.8085L65.133 41.4048C65.1807 41.4056 65.3049 41.3843 65.3638 41.383C65.5626 41.3776 66.0912 41.4065 66.3542 41.4121C67.9588 34.7807 65.7278 36.6793 64.3882 36.6793C63.1697 36.6793 61.0284 35.9974 59.9666 35.513C59.834 35.4524 59.4792 35.2805 59.3104 35.1823L56.1708 32.9964C55.0766 32.2672 55.2052 31.7342 54.0664 31L50.8917 33.6226C48.5025 35.7448 45.4388 36.6795 42.27 36.6795L42.2703 36.6793Z" fill="#3B0C77"/>
<path fill-rule="evenodd" clip-rule="evenodd" d="M36.3721 42.7644L36.6927 42.1221C36.2954 42.3669 36.3721 41.7361 36.3721 42.5955C35.9779 42.9125 36.1651 42.5511 36.3721 42.7644Z" fill="#FEFEFE"/>
<path fill-rule="evenodd" clip-rule="evenodd" d="M64.634 42.3588L64.7074 42.2883C64.7024 42.2927 64.6096 42.3353 64.634 42.3588Z" fill="#FEFEFE"/>
</g>
<defs>
<clipPath id="clip0_7_54">
<rect width="67.0811" height="62" fill="white"/>
</clipPath>
</defs>
</svg>
